<svg id="svg" version="1.1" xmlns="http://www.w3.org/2000/svg" xmlns:xlink="http://www.w3.org/1999/xlink" width="400" height="400" viewBox="0, 0, 400,400"><g id="svgg"><path id="path0" d="M127.025 57.273 C 125.437 58.434,119.153 78.865,120.109 79.756 C 121.086 80.668,131.990 83.512,132.335 82.945 C 132.511 82.657,133.066 80.886,133.570 79.008 L 134.485 75.595 136.787 77.799 L 139.088 80.004 143.776 75.365 C 146.354 72.814,148.293 70.282,148.084 69.738 C 147.780 68.945,166.177 68.750,241.376 68.750 L 335.046 68.750 333.513 74.023 C 332.669 76.924,331.066 82.549,329.949 86.523 L 327.919 93.750 285.835 93.750 L 243.750 93.750 243.750 100.000 L 243.750 106.250 284.037 106.250 C 322.041 106.250,324.301 106.327,323.915 107.617 C 315.220 136.693,287.500 235.963,287.500 238.025 C 287.500 240.728,288.407 241.829,301.339 254.834 L 315.178 268.750 165.401 268.750 C 16.667 268.750,15.614 268.761,14.062 270.313 C 11.621 272.754,11.621 339.746,14.062 342.188 C 15.615 343.740,16.667 343.750,175.000 343.750 C 333.333 343.750,334.385 343.740,335.938 342.188 C 337.448 340.677,337.500 339.583,337.500 309.180 L 337.500 277.734 362.500 190.234 C 376.462 141.366,387.500 101.362,387.500 99.626 C 387.500 96.604,386.943 95.961,367.366 76.384 L 347.232 56.250 237.828 56.250 C 148.888 56.250,128.162 56.441,127.025 57.273 M351.209 180.991 C 338.840 224.317,328.489 260.199,328.205 260.728 C 327.874 261.344,322.964 256.960,314.543 248.528 L 301.398 235.366 323.466 158.113 C 335.603 115.623,345.867 79.662,346.275 78.198 L 347.016 75.537 360.356 88.877 L 373.696 102.217 351.209 180.991 M146.484 87.982 C 68.205 99.334,19.827 175.420,43.095 250.586 C 44.602 255.454,45.979 258.594,46.607 258.594 C 47.391 258.594,57.407 254.958,58.380 254.320 C 58.477 254.256,57.844 252.329,56.974 250.038 C 27.499 172.467,98.360 87.473,180.479 101.900 C 249.295 113.990,292.160 186.522,268.026 250.038 C 267.156 252.329,266.523 254.261,266.620 254.331 C 267.268 254.797,277.927 258.594,278.589 258.594 C 279.873 258.594,284.304 243.562,286.074 233.203 C 297.246 167.795,255.578 105.827,189.844 90.090 C 181.862 88.180,154.346 86.841,146.484 87.982 M143.826 107.509 C 81.097 118.021,41.475 183.881,61.035 245.124 C 63.018 251.334,65.747 258.003,66.802 259.219 C 66.913 259.347,69.616 258.160,72.809 256.581 L 78.612 253.709 76.049 247.362 C 69.252 230.538,67.584 206.249,72.083 189.599 C 85.089 141.457,132.107 111.586,180.078 120.990 C 237.445 132.234,270.763 193.368,248.951 247.362 L 246.388 253.709 252.191 256.581 C 255.384 258.160,258.087 259.347,258.198 259.219 C 259.253 258.003,261.982 251.334,263.965 245.124 C 288.304 168.917,223.097 94.225,143.826 107.509 M160.547 132.734 C 146.124 139.426,146.479 161.437,161.108 167.539 C 173.878 172.865,187.466 163.824,187.466 150.000 C 187.466 135.918,173.287 126.823,160.547 132.734 M118.482 144.985 C 97.824 149.987,81.250 170.615,81.250 191.324 C 81.250 200.100,81.034 200.000,100.000 200.000 C 117.849 200.000,118.204 199.880,119.161 193.496 C 120.176 186.728,124.228 182.676,130.996 181.661 C 137.380 180.704,137.500 180.349,137.500 162.500 C 137.500 142.386,135.776 140.798,118.482 144.985 M172.656 146.094 C 173.524 146.962,174.219 148.698,174.219 150.000 C 174.219 151.302,173.524 153.038,172.656 153.906 C 171.788 154.774,170.052 155.469,168.750 155.469 C 167.448 155.469,165.712 154.774,164.844 153.906 C 163.976 153.038,163.281 151.302,163.281 150.000 C 163.281 148.698,163.976 146.962,164.844 146.094 C 165.712 145.226,167.448 144.531,168.750 144.531 C 170.052 144.531,171.788 145.226,172.656 146.094 M195.313 157.813 C 193.854 159.271,193.750 160.417,193.750 175.000 C 193.750 192.849,193.870 193.204,200.254 194.161 C 207.022 195.176,211.074 199.228,212.089 205.996 C 213.046 212.380,213.401 212.500,231.250 212.500 C 250.131 212.500,250.007 212.556,249.988 204.102 C 249.933 178.764,227.486 156.317,202.148 156.262 C 197.907 156.252,196.569 156.556,195.313 157.813 M125.000 163.219 L 125.000 169.407 122.729 169.906 C 117.287 171.101,108.601 179.787,107.406 185.229 L 106.907 187.500 100.761 187.500 L 94.615 187.500 95.818 183.398 C 99.579 170.576,111.231 159.993,124.805 157.073 C 124.912 157.050,125.000 159.816,125.000 163.219 M217.969 174.039 C 225.960 178.656,232.999 187.459,235.445 195.898 L 236.635 200.000 230.489 200.000 L 224.343 200.000 223.844 197.729 C 222.649 192.287,213.963 183.601,208.521 182.406 L 206.250 181.907 206.250 175.761 L 206.250 169.615 210.352 170.812 C 212.607 171.470,216.035 172.922,217.969 174.039 M154.297 188.984 C 139.874 195.676,140.229 217.687,154.858 223.789 C 167.628 229.115,181.216 220.074,181.216 206.250 C 181.216 192.168,167.037 183.073,154.297 188.984 M166.406 202.344 C 167.274 203.212,167.969 204.948,167.969 206.250 C 167.969 207.552,167.274 209.288,166.406 210.156 C 165.538 211.024,163.802 211.719,162.500 211.719 C 161.198 211.719,159.462 211.024,158.594 210.156 C 157.726 209.288,157.031 207.552,157.031 206.250 C 157.031 204.948,157.726 203.212,158.594 202.344 C 159.462 201.476,161.198 200.781,162.500 200.781 C 163.802 200.781,165.538 201.476,166.406 202.344 M98.047 213.984 C 83.624 220.676,83.979 242.687,98.608 248.789 C 111.378 254.115,124.966 245.074,124.966 231.250 C 124.966 217.168,110.787 208.073,98.047 213.984 M203.670 219.878 C 188.002 225.467,182.135 246.445,192.537 259.687 C 193.651 261.106,193.924 260.976,198.770 256.721 L 203.839 252.271 202.313 249.768 C 196.123 239.616,208.399 227.393,218.562 233.590 C 223.975 236.890,225.910 244.482,222.687 249.768 L 221.161 252.271 226.201 256.696 L 231.242 261.121 232.790 259.271 C 248.366 240.669,226.878 211.600,203.670 219.878 M110.156 227.344 C 111.024 228.212,111.719 229.948,111.719 231.250 C 111.719 232.552,111.024 234.288,110.156 235.156 C 109.288 236.024,107.552 236.719,106.250 236.719 C 104.948 236.719,103.212 236.024,102.344 235.156 C 101.476 234.288,100.781 232.552,100.781 231.250 C 100.781 229.948,101.476 228.212,102.344 227.344 C 103.212 226.476,104.948 225.781,106.250 225.781 C 107.552 225.781,109.288 226.476,110.156 227.344 M161.328 238.975 C 153.284 241.315,139.063 249.752,139.063 252.184 C 139.063 252.514,141.153 254.852,143.708 257.380 L 148.353 261.977 151.485 259.147 C 155.179 255.810,159.013 253.752,164.648 252.081 L 168.750 250.865 168.750 253.558 L 168.750 256.250 175.000 256.250 L 181.250 256.250 181.250 248.438 C 181.250 237.076,176.163 234.660,161.328 238.975 M225.000 306.250 L 225.000 331.250 125.000 331.250 L 25.000 331.250 25.000 306.250 L 25.000 281.250 125.000 281.250 L 225.000 281.250 225.000 306.250 M325.000 306.250 L 325.000 331.250 281.250 331.250 L 237.500 331.250 237.500 306.250 L 237.500 281.250 281.250 281.250 L 325.000 281.250 325.000 306.250 " stroke="none" fill="#000000" fill-rule="evenodd"></path></g></svg>